<svg width="30" height="30" viewBox="0 0 30 30" fill="none" xmlns="http://www.w3.org/2000/svg">
<path d="M27.768 22.638C26.4341 24.904 24.5303 26.7773 22.2478 28.0694C19.9654 29.3616 17.3848 30.0271 14.7654 29.9992C12.1459 29.9712 9.57997 29.2507 7.32536 27.9102C5.07075 26.5696 3.20692 24.6562 1.9212 22.3622C0.635485 20.0682 -0.0268271 17.4744 0.000831902 14.8416C0.0284909 12.2088 0.745146 9.62971 2.07877 7.36351C3.4124 5.09731 5.31601 3.22385 7.59828 1.93144C9.88056 0.639022 12.4611 -0.0268209 15.0805 0.000827012L15.0187 5.91409C13.432 5.89734 11.8688 6.30068 10.4863 7.08358C9.10378 7.86647 7.95065 9.00134 7.14279 10.3741C6.33493 11.7469 5.90081 13.3092 5.88405 14.9041C5.8673 16.4989 6.2685 18.0701 7.04734 19.4597C7.82618 20.8493 8.95521 22.0084 10.321 22.8205C11.6867 23.6325 13.2411 24.069 14.8278 24.0859C16.4146 24.1028 17.9778 23.6997 19.3604 22.9169C20.743 22.1342 21.8963 20.9995 22.7043 19.6268L27.768 22.638Z" fill="url(#paint0_linear_219_281)"/>
<path d="M19.6783 0.781593C21.0541 1.24633 22.355 1.91029 23.54 2.7525L20.1432 7.58094C19.4253 7.07077 18.6373 6.66857 17.8039 6.38704L19.6783 0.781593Z" fill="white"/>
<path d="M26.5942 5.65083C27.5281 6.82856 28.2803 8.14093 28.8253 9.5438L23.3448 11.6948C23.0146 10.845 22.559 10.0501 21.9933 9.33664L26.5942 5.65083Z" fill="white" fill-opacity="0.3"/>
<path d="M29.7641 13.4149C29.9224 14.9125 29.8554 16.4255 29.5654 17.9031L23.7931 16.7586C23.9688 15.8635 24.0094 14.947 23.9134 14.0398L29.7641 13.4149Z" fill="white" fill-opacity="0.1"/>
<defs>
<linearGradient id="paint0_linear_219_281" x1="14.6961" y1="17.095" x2="20.9891" y2="20.2482" gradientUnits="userSpaceOnUse">
<stop stop-color="white"/>
<stop offset="1" stop-color="#999999"/>
</linearGradient>
</defs>
</svg>
